<svg id="Layer_1" data-name="Layer 1" xmlns="http://www.w3.org/2000/svg" width="3.6in" height="1.9in" viewBox="0 0 256.1 137.8"><path d="M105.3,117.1c-46.5-21.9-92-3.3-102.7,1.9a4.5,4.5,0,0,0-2.5,5.1l.7,3A4.6,4.6,0,0,0,7.4,130c17.6-9.6,63.2-20.4,94.7-2.9h0c4.7,6.7,31.6,19.4,52.9,1.6,25-20.8,76.2-8,93.9,1.7a4.4,4.4,0,0,0,6.5-2.8l.6-2.5c.6-2.4-1-4.3-3.1-5.4-5.5-3-63.1-25.4-103-2C138.7,125.5,119,125.6,105.3,117.1Z" fill="#231f20"/><path d="M120.4,116.1C109.2,97.4,36.1,100.6,19.2,91.2c1.6,12.4-9.3,19.4-9.3,19.4,19.3-13.4,75.3-8.6,97.1,5C113.2,120.9,124.9,123.3,120.4,116.1Z" fill="#231f20"/><path d="M123.3,112.4C112,94.8,57.5,91.2,38.7,84.5c5.2,5.5-.8,7.5-.8,7.5,22.3.5,60,5.8,78.6,17.7C122.7,114.8,127.7,119.1,123.3,112.4Z" fill="#231f20"/><path d="M135.3,112.4c11.3-17.6,62-20.2,84.6-27.9-5.2,5.5.8,7.5.8,7.5-22.3.5-60,5.8-78.6,17.7C135.9,114.8,130.9,119.1,135.3,112.4Z" fill="#231f20"/><path d="M137.3,116.1c11.3-18.7,84.3-15.5,101.3-24.9-1.6,12.4,9.3,19.4,9.3,19.4-19.3-13.4-75.3-8.6-97.1,5C144.6,120.9,132.9,123.3,137.3,116.1Z" fill="#231f20"/><path d="M127.2,114.6c-3-11.8-17.6-30.1-38.8-28.8C108.4,90.3,115.5,100.6,127.2,114.6Z" fill="#231f20"/><path d="M131.3,114.6c3-11.8,17.6-30.1,38.8-28.8C150.1,90.3,143,100.6,131.3,114.6Z" fill="#231f20"/><path d="M121.8,9.6a21.9,21.9,0,0,0,.2,2.9h-.9a14.5,14.5,0,0,0-.7-4,3,3,0,0,0-1.4-2,6.7,6.7,0,0,0-3.2-.6h-1.9V25.8a10.9,10.9,0,0,0,.2,2.2,2.2,2.2,0,0,0,1,.9l2.3.3v.7H107.1v-.7l2.3-.3a2,2,0,0,0,.9-.9,6.1,6.1,0,0,0,.3-2.2V5.9h-1.9a6.7,6.7,0,0,0-3.2.6,3.5,3.5,0,0,0-1.5,2,30.9,30.9,0,0,0-.7,4h-.8a24.4,24.4,0,0,0,.1-2.9c0-1.3-.1-2.8-.2-4.5h19.7A39.1,39.1,0,0,0,121.8,9.6Z" fill="#231f20"/><path d="M129.4,15.6a6,6,0,0,1,6-4.2,4.9,4.9,0,0,1,3.7,1.3,5.1,5.1,0,0,1,.9,1.8,10.4,10.4,0,0,1,.3,2.8v9.3a2.5,2.5,0,0,0,.6,2,2.9,2.9,0,0,0,2.1.6v.7l-4.2-.2-4,.2v-.7a2.2,2.2,0,0,0,1.8-.6c.4-.3.5-1,.5-2V16.5a6.2,6.2,0,0,0-.5-3,2.4,2.4,0,0,0-2.3-1,4.1,4.1,0,0,0-2.5.8,5.3,5.3,0,0,0-1.8,2.3,7.9,7.9,0,0,0-.6,3.2v7.8a3,3,0,0,0,.5,2,2.4,2.4,0,0,0,1.8.6v.7l-3.9-.2-4.2.2v-.7a2.9,2.9,0,0,0,2.1-.6,2.5,2.5,0,0,0,.6-2V6.7a3.8,3.8,0,0,0-.6-2.4,2.5,2.5,0,0,0-2.1-.7V2.9h2.2a12.5,12.5,0,0,0,3.6-.5Z" fill="#231f20"/><path d="M159.7,25.7a7,7,0,0,1-6.6,4.7,7.8,7.8,0,0,1-7.1-4.3,12.1,12.1,0,0,1-.9-4.8,12.5,12.5,0,0,1,1-5.3,7.1,7.1,0,0,1,2.7-3.4,7.4,7.4,0,0,1,4.2-1.2,5.9,5.9,0,0,1,4.8,1.9c1.2,1.3,1.7,3.2,1.7,5.8H148.6a14.8,14.8,0,0,0-.1,2.2,9.6,9.6,0,0,0,.7,4,6.4,6.4,0,0,0,2,2.7,4.5,4.5,0,0,0,2.6.9,5.8,5.8,0,0,0,3-.8,5.6,5.6,0,0,0,2.2-2.7ZM150,13.6a8.8,8.8,0,0,0-1.4,4.8h7.6a10.1,10.1,0,0,0-.8-4.5,2.7,2.7,0,0,0-2.5-1.9A3.8,3.8,0,0,0,150,13.6Z" fill="#231f20"/><path d="M52.1,52.8v6.3a4.4,4.4,0,0,0,.3,1.9,1.4,1.4,0,0,0,1,.8,6.3,6.3,0,0,0,2.3.3v.7H46v-.7a4.4,4.4,0,0,0,1.9-.3c.4-.1.6-.4.8-.8a7.8,7.8,0,0,0,.2-1.9V41.8a8.8,8.8,0,0,0-.2-2,1.6,1.6,0,0,0-.8-.8L46,38.7V38h9.6a9.8,9.8,0,0,1,6.3,1.8A6.6,6.6,0,0,1,64,45a9.5,9.5,0,0,1-.8,3.7,8,8,0,0,1-2.9,2.9,10.9,10.9,0,0,1-5.5,1.2Zm1-13.8c-.4.1-.6.4-.8.9a7.8,7.8,0,0,0-.2,1.9V52.1h2.4c2.3,0,3.8-.6,4.7-1.8a8.3,8.3,0,0,0,1.3-4.9c0-2.3-.4-4-1.3-5.1a5.8,5.8,0,0,0-4.5-1.6A3.5,3.5,0,0,0,53.1,39Z" fill="#231f20"/><path d="M67.2,62a4.5,4.5,0,0,1-1-3.1,3.7,3.7,0,0,1,.8-2.6,6.5,6.5,0,0,1,2.1-1.6l3-1.3a13.1,13.1,0,0,0,3-1.2,1.8,1.8,0,0,0,.9-1.5V48.5a3.4,3.4,0,0,0-.9-2.7,3.3,3.3,0,0,0-2.4-.8,4,4,0,0,0-3.4,1.3,2.5,2.5,0,0,1,1.2.7,2.1,2.1,0,0,1,.4,1.4,2.2,2.2,0,0,1-.5,1.4,2.5,2.5,0,0,1-1.5.5,1.7,1.7,0,0,1-1.4-.6,2,2,0,0,1-.5-1.5,2.1,2.1,0,0,1,.4-1.4,2.6,2.6,0,0,1,1.2-1.1,5.1,5.1,0,0,1,2.1-1,8.6,8.6,0,0,1,2.8-.4,5.9,5.9,0,0,1,4.2,1.3,3.9,3.9,0,0,1,1.2,1.9,23.6,23.6,0,0,1,.2,3v9.8a1.9,1.9,0,0,0,.3,1.2.8.8,0,0,0,.8.4l.8-.2.8-.5.4.6a10.1,10.1,0,0,1-1.6,1,3.5,3.5,0,0,1-1.6.3,2.6,2.6,0,0,1-2.3-.9,3.2,3.2,0,0,1-.7-2.3,6.4,6.4,0,0,1-2.4,2.5,7.8,7.8,0,0,1-3.1.7A4.5,4.5,0,0,1,67.2,62ZM76,59V52.1a1.8,1.8,0,0,1-.9.8l-1.7.9a10,10,0,0,0-2.1,1.1,4.7,4.7,0,0,0-1.5,1.3,4.1,4.1,0,0,0-.6,2.3,3.6,3.6,0,0,0,.8,2.4,2.8,2.8,0,0,0,2,.8C73.6,61.7,74.9,60.8,76,59Z" fill="#231f20"/><path d="M97.7,45.3a7.3,7.3,0,0,1,2.4,3,13.2,13.2,0,0,1,.8,4.7,15.9,15.9,0,0,1-.8,5,8.3,8.3,0,0,1-2.7,3.8,6.8,6.8,0,0,1-4.5,1.5,6,6,0,0,1-2.4-.5,4.7,4.7,0,0,1-1.7-1.4v4.5a2.3,2.3,0,0,0,.8,2,5.7,5.7,0,0,0,2.6.5v.8H87.1l-3.8.2v-.8c.9,0,1.5-.1,1.8-.5a1.9,1.9,0,0,0,.6-1.7V48.6a3.5,3.5,0,0,0-.6-2.3,2.6,2.6,0,0,0-2.1-.8v-.7h2.2a12,12,0,0,0,3.6-.5v3.7A6.9,6.9,0,0,1,91,45.3a5.7,5.7,0,0,1,3.4-1A5.4,5.4,0,0,1,97.7,45.3Zm-.2,8.2c0-5.4-1.3-8.1-4-8.1a4.1,4.1,0,0,0-2.9,1.1,6.9,6.9,0,0,0-1.8,3.3V60.3a4.3,4.3,0,0,0,1.4,1.6,4.4,4.4,0,0,0,2.3.6C95.9,62.5,97.5,59.5,97.5,53.5Z" fill="#231f20"/><path d="M118.8,58.6a7.1,7.1,0,0,1-2.4,3.3,6.6,6.6,0,0,1-4.2,1.4,8.6,8.6,0,0,1-4.3-1.1,8,8,0,0,1-2.8-3.2,12.1,12.1,0,0,1-.9-4.8,12.1,12.1,0,0,1,1-5.2,7,7,0,0,1,6.9-4.7,5.9,5.9,0,0,1,4.8,1.9c1.2,1.3,1.7,3.2,1.7,5.8H107.7a15.5,15.5,0,0,0-.1,2.2,10.4,10.4,0,0,0,.7,4.1,6.7,6.7,0,0,0,2,2.6,4.3,4.3,0,0,0,2.6.9,5.2,5.2,0,0,0,3-.8,5.6,5.6,0,0,0,2.2-2.7Zm-9.7-12a9.3,9.3,0,0,0-1.5,4.7h7.7a10.1,10.1,0,0,0-.8-4.5,2.8,2.8,0,0,0-2.6-1.8A3.3,3.3,0,0,0,109.1,46.6Z" fill="#231f20"/><path d="M134.5,45.1a2.5,2.5,0,0,1,.9,2,2,2,0,0,1-.6,1.5,1.5,1.5,0,0,1-1.4.7,2.2,2.2,0,0,1-1.4-.5,1.9,1.9,0,0,1-.5-1.3,2.2,2.2,0,0,1,1.2-1.9.8.8,0,0,0-.7-.4,3.6,3.6,0,0,0-2.5,1.1,6.8,6.8,0,0,0-1.8,2.6,7.9,7.9,0,0,0-.6,2.9v7.4a2.7,2.7,0,0,0,.9,2.3,5.3,5.3,0,0,0,2.8.6v.7h-9.5v-.7a2.9,2.9,0,0,0,2.1-.6,2.9,2.9,0,0,0,.5-1.9v-11a4.4,4.4,0,0,0-.5-2.3,2.6,2.6,0,0,0-2.1-.8v-.7h2.2a12.5,12.5,0,0,0,3.6-.5v4.4a7.9,7.9,0,0,1,2-3.1,4.4,4.4,0,0,1,3.1-1.4A3.6,3.6,0,0,1,134.5,45.1Z" fill="#231f20"/><path d="M163.5,42.5a24.4,24.4,0,0,0,.1,2.9h-.8a34.5,34.5,0,0,0-.7-4,3.2,3.2,0,0,0-1.5-1.9,5.6,5.6,0,0,0-3.2-.7h-1.9v20a5.5,5.5,0,0,0,.3,2.1,1.6,1.6,0,0,0,.9.9,6.7,6.7,0,0,0,2.3.3v.7H148.7v-.7a6.7,6.7,0,0,0,2.3-.3,1.6,1.6,0,0,0,.9-.9,5.5,5.5,0,0,0,.3-2.1v-20h-1.9a5.6,5.6,0,0,0-3.2.7,3.2,3.2,0,0,0-1.5,1.9,34.5,34.5,0,0,0-.7,4h-.8a24.4,24.4,0,0,0,.1-2.9A37,37,0,0,0,144,38h19.7A37,37,0,0,0,163.5,42.5Z" fill="#231f20"/><path d="M178.9,45.1a2.5,2.5,0,0,1,.9,2,2.5,2.5,0,0,1-.5,1.5,1.8,1.8,0,0,1-1.5.7,2.1,2.1,0,0,1-1.3-.5,1.5,1.5,0,0,1-.5-1.3,2.3,2.3,0,0,1,1.1-1.9.7.7,0,0,0-.7-.4,3.8,3.8,0,0,0-2.5,1.1,7.8,7.8,0,0,0-1.7,2.6,8.2,8.2,0,0,0-.7,2.9v7.4a2.8,2.8,0,0,0,1,2.3,5.1,5.1,0,0,0,2.8.6v.7h-9.6v-.7a2.9,2.9,0,0,0,2.1-.6,2.4,2.4,0,0,0,.6-1.9v-11a3.5,3.5,0,0,0-.6-2.3,2.6,2.6,0,0,0-2.1-.8v-.7h2.2a11.5,11.5,0,0,0,3.6-.5v4.4a8.1,8.1,0,0,1,2.1-3.1,4.2,4.2,0,0,1,3-1.4A3.4,3.4,0,0,1,178.9,45.1Z" fill="#231f20"/><path d="M182.7,62a4.5,4.5,0,0,1-1-3.1,3.7,3.7,0,0,1,.8-2.6,7.4,7.4,0,0,1,2-1.6l3.1-1.3a13.1,13.1,0,0,0,3-1.2,1.8,1.8,0,0,0,.9-1.5V48.5a3.4,3.4,0,0,0-.9-2.7,3.3,3.3,0,0,0-2.4-.8,4,4,0,0,0-3.4,1.3,1.9,1.9,0,0,1,1.1.7,1.7,1.7,0,0,1,.5,1.4,2.2,2.2,0,0,1-.5,1.4,2.5,2.5,0,0,1-1.5.5,1.7,1.7,0,0,1-1.4-.6,2,2,0,0,1-.5-1.5,2.1,2.1,0,0,1,.4-1.4,2.6,2.6,0,0,1,1.2-1.1,5.1,5.1,0,0,1,2.1-1,8.6,8.6,0,0,1,2.8-.4,5.9,5.9,0,0,1,4.2,1.3,3.1,3.1,0,0,1,1.1,1.9,12.6,12.6,0,0,1,.3,3v9.8a1.9,1.9,0,0,0,.3,1.2.8.8,0,0,0,.8.4l.8-.2.8-.5.4.6a10.1,10.1,0,0,1-1.6,1,3.5,3.5,0,0,1-1.6.3,2.6,2.6,0,0,1-2.3-.9,3.2,3.2,0,0,1-.7-2.3,6.4,6.4,0,0,1-2.4,2.5,7.8,7.8,0,0,1-3.1.7A4.5,4.5,0,0,1,182.7,62Zm8.8-3V52.1a1.8,1.8,0,0,1-.9.8l-1.7.9a10,10,0,0,0-2.1,1.1,4.7,4.7,0,0,0-1.5,1.3,4.1,4.1,0,0,0-.6,2.3,3.6,3.6,0,0,0,.8,2.4,2.8,2.8,0,0,0,2,.8C189.1,61.7,190.4,60.8,191.5,59Z" fill="#231f20"/><path d="M204.6,59.6c0,.9.1,1.6.5,1.9a2.9,2.9,0,0,0,2.1.6v.7h-8.5v-.7a2.9,2.9,0,0,0,2.1-.6,2.4,2.4,0,0,0,.6-1.9v-11a3.5,3.5,0,0,0-.6-2.3,2.6,2.6,0,0,0-2.1-.8v-.7h2.2a12.7,12.7,0,0,0,3.7-.5Zm-.3-22.9a2.2,2.2,0,0,1,0,3.2,2.3,2.3,0,0,1-1.6.6,2,2,0,0,1-1.5-.6,2.3,2.3,0,0,1,1.5-3.9A2.4,2.4,0,0,1,204.3,36.7Z" fill="#231f20"/><path d="M214.6,59.6a2.4,2.4,0,0,0,.6,1.9,2.7,2.7,0,0,0,2,.6v.7h-8.4v-.7a2.8,2.8,0,0,0,2-.6,2.4,2.4,0,0,0,.6-1.9v-20a3.8,3.8,0,0,0-.6-2.4,2.4,2.4,0,0,0-2-.7v-.7h2.1a12.7,12.7,0,0,0,3.7-.5Z" fill="#231f20"/></svg>